<svg xmlns="http://www.w3.org/2000/svg" width="32" height="32" viewBox="0 0 32 32">
  <!-- Sombra sutil -->
  <g opacity="0.35">
    <path d="M13.6 3.2 L13.9 12.5 C13.9 13.6 14.7 14.4 15.6 14.4 L15.6 29.2 L17.2 29.2 L17.2 14.4
             C18.1 14.4 18.9 13.6 18.9 12.5 L19.2 3.2 L17.9 3.2 L17.6 11.4 L17.2 11.4 L17.2 3.2
             L16.3 3.2 L16.3 11.4 L15.9 11.4 L15.6 3.2 Z" fill="#0F1A14" transform="translate(0.6,0.6)"/>
  </g>

  <!-- Cuerpo del tenedor -->
  <path d="M13.4 3 L13.7 12.4 C13.7 13.6 14.5 14.4 15.5 14.4 L15.5 29 L17.1 29 L17.1 14.4
           C18.1 14.4 18.9 13.6 18.9 12.4 L19.2 3 L17.9 3 L17.6 11.2 L17.1 11.2 L17.1 3
           L16.1 3 L16.1 11.2 L15.6 11.2 L15.3 3 Z"
        fill="#B0BEB8" stroke="#0F1A14" stroke-width="0.5" stroke-linejoin="round"/>

  <!-- Brillo -->
  <path d="M15.6 3.2 L15.8 10.8" stroke="#F5F5F3" stroke-width="0.6" stroke-linecap="round" opacity="0.8"/>

  <!-- Punto de referencia del cursor (mango, no visible) -->
</svg>
